<?xml version="1.0" encoding="UTF-8"?>
<svg width="72" height="72" viewBox="0 0 72 72" fill="none" xmlns="http://www.w3.org/2000/svg">
  <!-- Brain shape -->
  <path d="M20 28C20 20 26 14 34 14C38 14 41 16 43 19C45 16 48 14 52 14C60 14 66 20 66 28C66 32 64 35 61 37C64 39 66 42 66 46C66 54 60 60 52 60C48 60 45 58 43 55C41 58 38 60 34 60C26 60 20 54 20 46C20 42 22 39 25 37C22 35 20 32 20 28Z" stroke="currentColor" stroke-width="2" fill="none"/>
  
  <!-- Neural connections -->
  <circle cx="30" cy="30" r="2" fill="currentColor"/>
  <circle cx="42" cy="25" r="2" fill="currentColor"/>
  <circle cx="54" cy="32" r="2" fill="currentColor"/>
  <circle cx="36" cy="40" r="2" fill="currentColor"/>
  <circle cx="48" cy="45" r="2" fill="currentColor"/>
  
  <!-- Connection lines -->
  <path d="M30 30 L42 25" stroke="currentColor" stroke-width="1" opacity="0.6"/>
  <path d="M42 25 L54 32" stroke="currentColor" stroke-width="1" opacity="0.6"/>
  <path d="M30 30 L36 40" stroke="currentColor" stroke-width="1" opacity="0.6"/>
  <path d="M36 40 L48 45" stroke="currentColor" stroke-width="1" opacity="0.6"/>
  <path d="M54 32 L48 45" stroke="currentColor" stroke-width="1" opacity="0.6"/>
</svg>